<?xml version="1.0" encoding="UTF-8" standalone="no"?>
<!-- Created with Inkscape (http://www.inkscape.org/) -->

<svg
   width="210mm"
   height="297mm"
   viewBox="0 0 210 297"
   version="1.1"
   id="svg1"
   inkscape:version="1.3.2 (091e20e, 2023-11-25, custom)"
   sodipodi:docname="Logo.svg"
   xmlns:inkscape="http://www.inkscape.org/namespaces/inkscape"
   xmlns:sodipodi="http://sodipodi.sourceforge.net/DTD/sodipodi-0.dtd"
   xmlns="http://www.w3.org/2000/svg"
   xmlns:svg="http://www.w3.org/2000/svg">
  <sodipodi:namedview
     id="namedview1"
     pagecolor="#ffffff"
     bordercolor="#000000"
     borderopacity="0.25"
     inkscape:showpageshadow="2"
     inkscape:pageopacity="0.0"
     inkscape:pagecheckerboard="0"
     inkscape:deskcolor="#d1d1d1"
     inkscape:document-units="mm"
     showguides="true"
     inkscape:zoom="1.4142136"
     inkscape:cx="4118.897"
     inkscape:cy="965.20075"
     inkscape:window-width="2400"
     inkscape:window-height="1284"
     inkscape:window-x="2391"
     inkscape:window-y="-9"
     inkscape:window-maximized="1"
     inkscape:current-layer="layer1" />
  <defs
     id="defs1">
    <inkscape:path-effect
       effect="fillet_chamfer"
       id="path-effect48"
       is_visible="true"
       lpeversion="1"
       nodesatellites_param="F,0,0,1,0,0,0,1 @ F,0,0,1,0,0,0,1 @ F,0,0,1,0,0,0,1 @ F,0,0,1,0,0,0,1 @ F,0,0,1,0,0,0,1 @ F,0,0,1,0,0,0,1 @ F,0,0,1,0,0,0,1 @ F,0,0,1,0,0,0,1 @ F,0,0,1,0,0,0,1 @ F,0,0,1,0,0,0,1 @ F,0,0,1,0,0,0,1 @ F,0,0,1,0,0,0,1 @ F,0,0,1,0,0,0,1 @ F,0,0,1,0,0,0,1 @ F,0,0,1,0,0,0,1 @ F,0,0,1,0,0,0,1 @ F,0,0,1,0,0,0,1 @ F,0,0,1,0,0,0,1 @ F,0,0,1,0,0,0,1 @ F,0,0,1,0,0,0,1 @ F,0,0,1,0,0,0,1 @ F,0,0,1,0,0,0,1 @ F,0,0,1,0,0,0,1 @ F,0,0,1,0,0,0,1 @ F,0,0,1,0,0,0,1 @ F,0,0,1,0,0,0,1 @ F,0,0,1,0,0,0,1 @ F,0,0,1,0,0,0,1 @ F,0,0,1,0,0,0,1 @ F,0,0,1,0,0,0,1 @ F,0,0,1,0,0,0,1 @ F,0,0,1,0,0,0,1 @ F,0,0,1,0,0,0,1 @ F,0,0,1,0,0,0,1 @ F,0,0,1,0,0,0,1 @ F,0,0,1,0,0,0,1 @ F,0,0,1,0,0,0,1 @ F,0,0,1,0,0,0,1 @ F,0,0,1,0,0,0,1 @ F,0,0,1,0,0,0,1 @ F,0,0,1,0,0,0,1 @ F,0,0,1,0,0,0,1 @ F,0,0,1,0,0,0,1 @ F,0,0,1,0,0,0,1 @ F,0,0,1,0,0,0,1 @ F,0,0,1,0,0,0,1 @ F,0,0,1,0,0,0,1 | F,0,0,1,0,0,0,1 @ F,0,0,1,0,0,0,1 @ F,0,0,1,0,0,0,1 @ F,0,0,1,0,0,0,1 | F,0,0,1,0,0,0,1 @ F,0,0,1,0,0,0,1 @ F,0,0,1,0,0,0,1 @ F,0,0,1,0,0,0,1 @ F,0,0,1,0,0,0,1 @ F,0,0,1,0,0,0,1 @ F,0,0,1,0,0,0,1 @ F,0,0,1,0,0,0,1 @ F,0,0,1,0,0,0,1 @ F,0,0,1,0,0,0,1 @ F,0,0,1,0,0,0,1 @ F,0,0,1,0,0,0,1 @ F,0,0,1,0,0,0,1 @ F,0,0,1,0,0,0,1 @ F,0,0,1,0,0,0,1 @ F,0,0,1,0,0,0,1 @ F,0,0,1,0,0,0,1 @ F,0,0,1,0,0,0,1 @ F,0,0,1,0,0,0,1 @ F,0,0,1,0,0,0,1 @ F,0,0,1,0,0,0,1 @ F,0,0,1,0,0,0,1 @ F,0,0,1,0,0,0,1"
       radius="0"
       unit="px"
       method="auto"
       mode="F"
       chamfer_steps="1"
       flexible="false"
       use_knot_distance="true"
       apply_no_radius="true"
       apply_with_radius="true"
       only_selected="false"
       hide_knots="false" />
    <inkscape:path-effect
       effect="fillet_chamfer"
       id="path-effect46"
       is_visible="true"
       lpeversion="1"
       nodesatellites_param="F,0,0,1,0,0,0,1 @ F,0,0,1,0,0,0,1 @ F,0,0,1,0,0,0,1 @ F,0,0,1,0,0,0,1 @ F,0,0,1,0,0,0,1 @ F,0,0,1,0,0,0,1 @ F,0,0,1,0,0,0,1 @ F,0,0,1,0,0,0,1 @ F,0,0,1,0,0,0,1 @ F,0,0,1,0,0,0,1 @ F,0,0,1,0,0,0,1 @ F,0,0,1,0,0,0,1 @ F,0,0,1,0,0,0,1 @ F,0,0,1,0,0,0,1 @ F,0,0,1,0,0,0,1 @ F,0,0,1,0,0,0,1 @ F,0,0,1,0,0,0,1 @ F,0,0,1,0,0,0,1 @ F,0,0,1,0,0,0,1 @ F,0,0,1,0,0,0,1 @ F,0,0,1,0,0,0,1 @ F,0,0,1,0,0,0,1 @ F,0,0,1,0,0,0,1 @ F,0,0,1,0,0,0,1 @ F,0,0,1,0,0,0,1 @ F,0,0,1,0,0,0,1 @ F,0,0,1,0,0,0,1 @ F,0,0,1,0,0,0,1 @ F,0,0,1,0,0,0,1 @ F,0,0,1,0,0,0,1 @ F,0,0,1,0,0,0,1 @ F,0,0,1,0,0,0,1 @ F,0,0,1,0,0,0,1 @ F,0,0,1,0,0,0,1 @ F,0,0,1,0,0,0,1 @ F,0,0,1,0,0,0,1 @ F,0,0,1,0,0,0,1 @ F,0,0,1,0,0,0,1 @ F,0,0,1,0,0,0,1 @ F,0,0,1,0,0,0,1 @ F,0,0,1,0,0,0,1 @ F,0,0,1,0,0,0,1 @ F,0,0,1,0,0,0,1 @ F,0,0,1,0,0,0,1 @ F,0,0,1,0,0,0,1 @ F,0,0,1,0,0,0,1 @ F,0,0,1,0,0,0,1 | F,0,0,1,0,0,0,1 @ F,0,0,1,0,0,0,1 @ F,0,0,1,0,0,0,1 @ F,0,0,1,0,0,0,1 | F,0,0,1,0,0,0,1 @ F,0,0,1,0,0,0,1 @ F,0,0,1,0,0,0,1 @ F,0,0,1,0,0,0,1 @ F,0,0,1,0,0,0,1 @ F,0,0,1,0,0,0,1 @ F,0,0,1,0,0,0,1 @ F,0,0,1,0,0,0,1 @ F,0,0,1,0,0,0,1 @ F,0,0,1,0,0,0,1 @ F,0,0,1,0,0,0,1 @ F,0,0,1,0,0,0,1 @ F,0,0,1,0,0,0,1 @ F,0,0,1,0,0,0,1 @ F,0,0,1,0,0,0,1 @ F,0,0,1,0,0,0,1 @ F,0,0,1,0,0,0,1 @ F,0,0,1,0,0,0,1 @ F,0,0,1,0,0,0,1 @ F,0,0,1,0,0,0,1 @ F,0,0,1,0,0,0,1 @ F,0,0,1,0,0,0,1 @ F,0,0,1,0,0,0,1"
       radius="0"
       unit="px"
       method="auto"
       mode="F"
       chamfer_steps="1"
       flexible="false"
       use_knot_distance="true"
       apply_no_radius="true"
       apply_with_radius="true"
       only_selected="false"
       hide_knots="false" />
  </defs>
  <g
     inkscape:label="Layer 1"
     inkscape:groupmode="layer"
     id="layer1">
    <path
       sodipodi:type="star"
       style="fill:none;stroke:#000000;stroke-width:0.08269052;stroke-dasharray:none;stroke-opacity:1"
       id="path2"
       inkscape:flatsided="false"
       sodipodi:sides="3"
       sodipodi:cx="26.745548"
       sodipodi:cy="68.574341"
       sodipodi:r1="60.152569"
       sodipodi:r2="30.076284"
       sodipodi:arg1="0.52359878"
       sodipodi:arg2="1.5707963"
       inkscape:rounded="0"
       inkscape:randomized="0"
       d="m 78.839201,98.650625 -52.093652,0 -52.093654,0 L 0.6987215,53.536199 26.745549,8.421772 52.792374,53.536198 Z"
       inkscape:transform-center-y="-18.186056"
       transform="matrix(1.2093285,0,0,1.2093285,92.432656,51.317163)"
       inkscape:transform-center-x="1.0767301e-06" />
    <ellipse
       style="fill:none;stroke:#000000;stroke-width:0.0999994;stroke-dasharray:none;stroke-opacity:1"
       id="circle4"
       cx="164.65019"
       cy="170.62444"
       rx="39.868279"
       ry="39.894135" />
    <path
       style="fill:none;stroke:#000000;stroke-width:0.1;stroke-dasharray:none;stroke-opacity:1"
       d="m 124.782,57.143132 c 0,125.486388 0,126.263868 0,126.263868 v 0"
       id="path5" />
    <ellipse
       style="fill:none;stroke:#000000;stroke-width:0.0999994;stroke-dasharray:none;stroke-opacity:1"
       id="ellipse5"
       cx="84.912743"
       cy="170.62444"
       rx="39.868279"
       ry="39.894135" />
    <ellipse
       style="fill:none;stroke:#000000;stroke-width:0.0999996;stroke-dasharray:none;stroke-opacity:1"
       id="ellipse6"
       cx="165.57156"
       cy="108.48166"
       rx="22.231556"
       ry="22.245987" />
    <path
       style="fill:none;stroke:#000000;stroke-width:0.1;stroke-dasharray:none;stroke-opacity:1"
       d="M 61.768496,86.238761 H 187.83013"
       id="path6" />
    <path
       style="fill:none;stroke:#000000;stroke-width:0.1;stroke-dasharray:none;stroke-opacity:1"
       d="m 61.729898,56.583122 c 0,116.623038 0,117.089538 0,117.089538"
       id="path7" />
    <path
       style="fill:none;stroke:#000000;stroke-width:0.1;stroke-dasharray:none;stroke-opacity:1"
       d="m 187.80714,56.583122 c 0,116.623038 0,117.089538 0,117.089538"
       id="path8" />
    <ellipse
       style="fill:none;stroke:#000000;stroke-width:0.0999996;stroke-dasharray:none;stroke-opacity:1"
       id="ellipse8"
       cx="83.961212"
       cy="108.48166"
       rx="22.231556"
       ry="22.245987" />
    <path
       id="use8"
       style="fill:none;stroke:#000000;stroke-width:0.0826905;stroke-dasharray:none;stroke-opacity:1"
       inkscape:transform-center-x="1.0767301e-06"
       inkscape:transform-center-y="-18.186056"
       d="M 78.839195,98.650624 59.797179,65.669163 c -0.02678,-7.45e-4 -0.05356,-0.0015 -0.08033,-0.0021 -18.205047,4.31e-4 -32.963708,14.766745 -32.966505,32.983598"
       transform="matrix(1.2093285,0,0,1.2093285,285.50817,50.194631)"
       inkscape:export-filename="use8.png"
       inkscape:export-xdpi="96"
       inkscape:export-ydpi="96"
       sodipodi:nodetypes="cccc" />
    <path
       id="path23"
       style="fill:none;stroke:#000000;stroke-width:0.0826905;stroke-dasharray:none;stroke-opacity:1"
       inkscape:transform-center-x="1.0767301e-06"
       inkscape:transform-center-y="-18.186056"
       d="m 26.745639,98.650587 h 0.0034 C 26.74626,80.4334 11.987078,65.666948 -6.2183022,65.666989 c -0.030057,0.0021 -0.060112,0.0042 -0.090164,0.0064 L -25.347917,98.650587"
       sodipodi:nodetypes="ccccc"
       transform="matrix(1.2093285,0,0,1.2093285,285.50817,50.194631)" />
    <path
       id="path24"
       style="fill:none;stroke:#000000;stroke-width:0.0826905;stroke-dasharray:none;stroke-opacity:1"
       inkscape:transform-center-x="1.0767301e-06"
       inkscape:transform-center-y="-18.186056"
       d="M 26.745639 8.4217227 L 0.6986472 53.536368 L -6.3084657 65.673399 A 32.967286 32.988666 0 0 1 -6.2183022 65.666989 A 32.967286 32.988666 0 0 1 26.749057 98.650587 L 26.750339 98.650587 A 32.967286 32.988666 0 0 1 59.716844 65.666989 A 32.967286 32.988666 0 0 1 59.797179 65.669126 L 52.792203 53.536368 L 26.745639 8.4217227 z "
       transform="matrix(1.2093285,0,0,1.2093285,285.50817,50.194631)" />
    <path
       id="use12"
       style="fill:none;stroke:#000000;stroke-width:0.0999999;stroke-dasharray:none;stroke-opacity:1"
       d="m 357.7254,129.60676 c 12.21832,-0.0599 23.14756,-7.66104 23.15316,-17.00863 1.1e-4,-9.39327 -9.95343,-17.008053 -22.23172,-17.007983 -0.0577,0.0029 -0.11542,0.0062 -0.17311,0.0095 h -80.93356 c -0.16772,-0.0045 -0.33551,-0.0078 -0.50333,-0.0095 v -3.1e-5 c -12.27829,-6.9e-5 -22.23183,7.614714 -22.23172,17.007984 1.7e-4,9.39313 10.96654,17.0099 23.24463,17.00983"
       sodipodi:nodetypes="ccccccccc" />
    <path
       id="path25"
       style="fill:none;stroke:#000000;stroke-width:0.1;stroke-dasharray:none;stroke-opacity:1"
       inkscape:transform-center-x="4.640522e-06"
       inkscape:transform-center-y="-19.515969"
       d="m 266.09535,126.69979 -24.71076,42.79665"
       sodipodi:nodetypes="cc" />
    <path
       style="fill:none;stroke:#000000;stroke-width:7;stroke-linecap:butt;stroke-linejoin:miter;stroke-dasharray:none;stroke-opacity:1"
       d="m 355.45866,284.33031 -23.02805,-39.88542 c -0.0324,-9e-4 -0.0648,-0.002 -0.0971,-0.003 -22.01589,5.2e-4 -39.86395,17.85784 -39.86734,39.888"
       id="path31" />
    <path
       style="fill:none;stroke:#000000;stroke-width:7;stroke-linecap:butt;stroke-linejoin:miter;stroke-dasharray:none;stroke-opacity:1"
       d="m 292.46044,284.33026 h 0.004 c -0.003,-22.03056 -17.85206,-39.88805 -39.86834,-39.888 -0.0363,0.003 -0.0727,0.005 -0.10904,0.008 l -23.02495,39.88026"
       id="path32" />
    <path
       style="fill:none;stroke:#000000;stroke-width:7;stroke-linecap:butt;stroke-linejoin:miter;stroke-dasharray:none;stroke-opacity:1"
       d="m 292.46044,175.21393 -31.49937,54.55842 -8.4739,14.67766 a 39.868279,39.894134 0 0 1 0.10904,-0.008 39.868279,39.894134 0 0 1 39.86837,39.888 h 0.002 a 39.868279,39.894134 0 0 1 39.86733,-39.888 39.868279,39.894134 0 0 1 0.0971,0.003 l -8.47131,-14.67249 z"
       id="path33" />
    <path
       style="fill:none;stroke:#000000;stroke-width:7;stroke-linecap:butt;stroke-linejoin:miter;stroke-dasharray:none;stroke-opacity:1"
       d="m 332.33341,244.44143 c 12.21832,-0.0599 23.14756,-7.66104 23.15316,-17.00863 1.1e-4,-9.39327 -9.95343,-17.00806 -22.23172,-17.00799 -0.0577,0.003 -0.11542,0.006 -0.17311,0.009 h -80.93356 c -0.16772,-0.004 -0.33551,-0.008 -0.50333,-0.009 v -3e-5 c -12.27829,-7e-5 -22.23183,7.61472 -22.23172,17.00799 1.7e-4,9.39313 10.96654,17.0099 23.24463,17.00983"
       id="path34" />
    <path
       style="fill:none;stroke:#000000;stroke-width:7;stroke-linecap:butt;stroke-linejoin:miter;stroke-dasharray:none;stroke-opacity:1"
       d="M 239.71117,243.09253 215.9926,284.33111"
       id="path35" />
    <path
       id="path36"
       style="color:#000000;fill:#000000;stroke:none;stroke-opacity:1;-inkscape-stroke:none"
       d="m 611.59929,245.7916 c 4.4957,0.70812 8.50434,1.14798 12.32012,2.75925 6.52886,2.75693 12.07776,7.36337 15.99437,13.16974 5.16825,7.6619 6.20048,15.40262 6.20117,20.36516 h 0.002 v 3.49798 h 3.49384 v 0.002 h 3.50625 v -0.002 l 0.002,-3.49798 c 7.7e-4,-4.97762 1.03888,-12.71195 6.20117,-20.36516 4.47207,-6.62996 10.46322,-10.83422 15.99386,-13.16974 3.81272,-1.61008 8.00004,-2.452 12.3517,-2.67012 l 19.86338,37.9553 8.11114,-0.004 -20.33571,-38.71908 v -0.002 c 4.61767,-0.83785 8.89276,-2.57797 12.38477,-5.09943 4.92085,-3.55319 8.44549,-8.78508 8.4491,-14.82235 v -0.002 c 7e-5,-5.93287 -3.1793,-11.20646 -7.88479,-14.80633 -4.70551,-3.59987 -10.98482,-5.7015 -17.84749,-5.70146 h -0.0899 l -0.17415,0.0103 h -18.17563 l -22.3555,-38.71997 -22.32163,38.72374 h -0.0129 l -5.46892,9.48211 -13.98881,24.47964 c -3.61068,-0.89004 -10.1469,-2.80767 -12.19202,-4.27984 -3.61162,-2.59982 -5.56239,-5.85306 -5.56245,-9.18755 -4e-5,-3.46037 1.79791,-6.69014 5.13871,-9.24595 3.33995,-2.55519 8.17591,-4.26095 13.58986,-4.26176 v -5.1e-4 c 10e-4,1e-5 0.003,-1e-5 0.004,0 2.47031,0.0133 6.14697,0.0125 9.58753,0.0145 l 4.04006,-7.00423 c -5.00742,-0.005 -12.75259,-0.0125 -13.6064,-0.0103 h -0.0212 c -6.86267,-4e-5 -13.1425,2.10107 -17.84801,5.70094 -4.70549,3.59987 -7.88486,8.87396 -7.88479,14.80685 1.4e-4,7.67768 5.15412,12.69152 9.76995,15.64245 l -24.79177,43.001 7.49928,-0.001 23.23011,-40.31226 m 2.93252,5.64227 -19.94647,34.66534 7.96437,-0.001 19.52716,-33.92079 m 74.60056,-10.63166 c -9.57977,1.02067 -18.12065,5.51152 -25.01191,12.14861 -4.29026,4.29247 -7.22104,8.97142 -9.22062,13.63845 -2.19537,-5.12385 -5.33525,-9.7512 -9.22063,-13.63845 -6.75842,-6.81249 -15.82039,-10.14863 -25.10151,-11.9672 l 16.00387,-27.76319 h 31.77584 l -4.03748,-7.00061 h -23.69778 l 14.27148,-24.72045 9.31675,16.13597 0.009,-0.005 12.42095,21.5346 10.1725,17.64803 7.66988,-0.75707 -5.05815,-8.74779 -8.13439,-14.08803 h 14.31644 l 0.12506,-0.006 c 5.39763,0.009 10.21894,1.70878 13.55059,4.25762 3.3408,2.55581 5.13876,5.7861 5.13871,9.24647 -0.003,3.3096 -1.94792,6.5516 -5.54695,9.15034 -3.13871,2.26636 -7.46447,3.79924 -12.08815,4.19148"
       sodipodi:nodetypes="cssccccccccsscccccsssssccccccccssscccccsssscccccccccccccccccccccccccccscsc"
       inkscape:path-effect="#path-effect46"
       inkscape:original-d="m 611.59929,245.7916 c 4.4957,0.70812 8.50434,1.14798 12.32012,2.75925 6.52886,2.75693 12.07776,7.36337 15.99437,13.16974 5.16825,7.6619 6.20048,15.40262 6.20117,20.36516 h 0.002 v 3.49798 h 3.49384 v 0.002 h 3.50625 v -0.002 l 0.002,-3.49798 c 7.7e-4,-4.97762 1.03888,-12.71195 6.20117,-20.36516 4.47207,-6.62996 10.46322,-10.83422 15.99386,-13.16974 3.81272,-1.61008 8.00004,-2.452 12.3517,-2.67012 l 19.86338,37.9553 8.11114,-0.004 -20.33571,-38.71908 v -0.002 c 4.61767,-0.83785 8.89276,-2.57797 12.38477,-5.09943 4.92085,-3.55319 8.44549,-8.78508 8.4491,-14.82235 v -0.002 c 7e-5,-5.93287 -3.1793,-11.20646 -7.88479,-14.80633 -4.70551,-3.59987 -10.98482,-5.7015 -17.84749,-5.70146 h -0.0899 l -0.17415,0.0103 h -18.17563 l -22.3555,-38.71997 -22.32163,38.72374 h -0.0129 l -5.46892,9.48211 -13.98881,24.47964 c -3.61068,-0.89004 -10.1469,-2.80767 -12.19202,-4.27984 -3.61162,-2.59982 -5.56239,-5.85306 -5.56245,-9.18755 -4e-5,-3.46037 1.79791,-6.69014 5.13871,-9.24595 3.33995,-2.55519 8.17591,-4.26095 13.58986,-4.26176 v -5.1e-4 c 10e-4,1e-5 0.003,-1e-5 0.004,0 2.47031,0.0133 6.14697,0.0125 9.58753,0.0145 l 4.04006,-7.00423 c -5.00742,-0.005 -12.75259,-0.0125 -13.6064,-0.0103 h -0.0212 c -6.86267,-4e-5 -13.1425,2.10107 -17.84801,5.70094 -4.70549,3.59987 -7.88486,8.87396 -7.88479,14.80685 1.4e-4,7.67768 5.15412,12.69152 9.76995,15.64245 l -24.79177,43.001 7.49928,-0.001 23.23011,-40.31226 m 2.93252,5.64227 -19.94647,34.66534 7.96437,-0.001 19.52716,-33.92079 m 74.60056,-10.63166 c -9.57977,1.02067 -18.12065,5.51152 -25.01191,12.14861 -4.29026,4.29247 -7.22104,8.97142 -9.22062,13.63845 -2.19537,-5.12385 -5.33525,-9.7512 -9.22063,-13.63845 -6.75842,-6.81249 -15.82039,-10.14863 -25.10151,-11.9672 l 16.00387,-27.76319 h 31.77584 l -4.03748,-7.00061 h -23.69778 l 14.27148,-24.72045 9.31675,16.13597 0.009,-0.005 12.42095,21.5346 10.1725,17.64803 7.66988,-0.75707 -5.05815,-8.74779 -8.13439,-14.08803 h 14.31644 l 0.12506,-0.006 c 5.39763,0.009 10.21894,1.70878 13.55059,4.25762 3.3408,2.55581 5.13876,5.7861 5.13871,9.24647 -0.003,3.3096 -1.94792,6.5516 -5.54695,9.15034 -3.13871,2.26636 -7.46447,3.79924 -12.08815,4.19148" />
    <rect
       style="fill:#ffff00;fill-opacity:0.425837;stroke:none;stroke-width:0.0999984;stroke-linecap:butt;stroke-linejoin:miter;stroke-dasharray:none;stroke-opacity:1"
       id="rect39"
       width="4.204742"
       height="36.404217"
       x="537.12366"
       y="503.51147"
       transform="rotate(-29.975482)" />
    <rect
       style="fill:#ffff00;fill-opacity:0.425837;stroke:none;stroke-width:0.0999984;stroke-linecap:butt;stroke-linejoin:miter;stroke-dasharray:none;stroke-opacity:1"
       id="rect40"
       width="4.204742"
       height="36.404217"
       x="-722.96906"
       y="-266.15631"
       transform="matrix(-0.86623929,-0.49962936,-0.49962936,0.86623929,0,0)" />
    <path
       style="color:#000000;fill:#000000;-inkscape-stroke:none"
       d="m 470.2237,165.96978 -22.32193,38.72389 c 0,0 -17.31194,-0.0172 -18.47104,-0.0142 h -0.0215 c -6.86269,-4e-5 -13.14215,2.1013 -17.84766,5.70117 -4.70551,3.59987 -7.88483,8.87375 -7.88476,14.80664 1.4e-4,7.6777 5.1537,12.69163 9.76953,15.64258 l -24.79167,43.00091 7.49958,-9.1e-4 23.23003,-40.31253 c 1.03182,0.29385 4.17128,1.45367 5.24767,1.64684 l -22.26168,38.66074 7.9645,-8.9e-4 21.83618,-37.94534 c 4.3554,0.21701 8.54554,1.0606 12.36132,2.67187 6.52888,2.75693 12.07752,7.36355 15.99415,13.16992 5.16825,7.66192 6.20048,15.40268 6.20117,20.36524 h 0.002 v 3.49804 h 3.49414 v 0.002 h 3.50586 v -0.002 l 0.002,-3.49804 c 7.7e-4,-4.97764 1.03889,-12.71201 6.20118,-20.36524 4.47209,-6.62998 10.4635,-10.8344 15.99414,-13.16992 3.81274,-1.61008 7.9999,-2.4518 12.35156,-2.66992 l 19.86354,37.95508 8.11107,-0.004 -20.33594,-38.71888 v -0.002 c 4.61769,-0.83785 8.89276,-2.57815 12.38477,-5.09961 4.92085,-3.55319 8.4456,-8.78498 8.44921,-14.82227 v -0.002 c 7e-5,-5.93289 -3.17925,-11.20677 -7.88476,-14.80664 -4.70551,-3.59987 -10.98497,-5.70121 -17.84766,-5.70117 h -0.0898 l -0.17383,0.01 h -18.17578 z m 0,13.99897 14.27344,24.7207 h -28.54492 z m 40.83789,31.71494 c 5.39765,0.009 10.21911,1.70898 13.55078,4.25782 3.3408,2.55581 5.13872,5.78572 5.13867,9.24609 -0.003,3.30962 -1.94784,6.55165 -5.54687,9.15039 -3.13871,2.26636 -7.46419,3.79917 -12.08789,4.19141 l -7.36133,-12.75196 -8.13476,-14.08789 h 14.3164 z m -82.63051,26.97157 c -3.6107,-0.89004 -10.14656,-2.80785 -12.19168,-4.28002 -3.61164,-2.59982 -5.56244,-5.85299 -5.5625,-9.1875 -4e-5,-3.46037 1.79787,-6.69028 5.13867,-9.24609 3.33997,-2.55519 8.17587,-4.26091 13.58984,-4.26172 l -7e-5,-2.4e-4 c 10e-4,1e-5 0.003,-1e-5 0.004,0 3.7166,0.02 10.70768,0.0219 14.42442,0.0217 m 8.07744,-0.0117 h 36.62695 l 15.92188,27.57813 c -9.57979,1.02069 -18.11849,5.51523 -25.00977,12.15234 -4.29028,4.29247 -7.2211,8.97164 -9.2207,13.63867 -2.19537,-5.12385 -5.33532,-9.75142 -9.2207,-13.63867 -6.75844,-6.81251 -15.5513,-11.04898 -25.01953,-12.1543 z"
       id="path40"
       sodipodi:nodetypes="cccccsssccccccccsscccccccssscccccssssscccccccccscsccccccsssccccccsssc" />
    <rect
       style="fill:#ffff00;fill-opacity:0.425837;stroke:none;stroke-width:0.0999984;stroke-linecap:butt;stroke-linejoin:miter;stroke-dasharray:none;stroke-opacity:1"
       id="rect41"
       width="4.204742"
       height="36.404217"
       x="603.26971"
       y="508.67581"
       transform="rotate(-29.975482)" />
    <rect
       style="fill:#ffff00;fill-opacity:0.425837;stroke:none;stroke-width:0.100017;stroke-linecap:butt;stroke-linejoin:miter;stroke-dasharray:none;stroke-opacity:1"
       id="rect42"
       width="4.210885"
       height="11.708389"
       x="-244.71387"
       y="767.60046"
       transform="matrix(-0.12568975,-0.9920696,0.99512513,-0.09862034,0,0)" />
    <rect
       style="fill:#ffff00;fill-opacity:0.425837;stroke:none;stroke-width:0.0999984;stroke-linecap:butt;stroke-linejoin:miter;stroke-dasharray:none;stroke-opacity:1"
       id="rect43"
       width="4.204742"
       height="36.404217"
       x="614.49518"
       y="515.15033"
       transform="rotate(-29.975482)" />
    <rect
       style="fill:#ffff00;fill-opacity:0.425837;stroke:none;stroke-width:0.0999984;stroke-linecap:butt;stroke-linejoin:miter;stroke-dasharray:none;stroke-opacity:1"
       id="rect44"
       width="4.204742"
       height="36.404217"
       x="750.67291"
       y="201.84496"
       transform="matrix(0.86623929,0.49962936,0.49962936,-0.86623929,0,0)" />
    <rect
       style="fill:#ffff00;fill-opacity:0.425837;stroke:none;stroke-width:0.100017;stroke-linecap:butt;stroke-linejoin:miter;stroke-dasharray:none;stroke-opacity:1"
       id="rect45"
       width="4.210885"
       height="11.708389"
       x="95.732506"
       y="784.73065"
       transform="matrix(-0.12568975,0.9920696,0.99512513,0.09862034,0,0)" />
    <rect
       style="fill:#ffff00;fill-opacity:0.425837;stroke:none;stroke-width:0.0999984;stroke-linecap:butt;stroke-linejoin:miter;stroke-dasharray:none;stroke-opacity:1"
       id="rect46"
       width="4.204742"
       height="36.404217"
       x="761.78693"
       y="208.25526"
       transform="matrix(0.86623929,0.49962936,0.49962936,-0.86623929,0,0)" />
    <path
       id="path46"
       style="color:#000000;fill:#000000;stroke:none;stroke-opacity:1;-inkscape-stroke:none"
       d="m 890.49609,164.64648 c -11.11979,19.31911 -22.29578,38.60647 -33.37383,57.94907 l -8.47578,14.83023 c -3.58944,-0.9798 -7.23986,-1.92362 -10.56624,-3.62565 -2.87016,-1.79332 -5.38395,-4.72757 -5.59508,-8.23258 -0.17582,-3.30588 1.69905,-6.39129 4.22382,-8.39763 4.03664,-3.30173 9.38906,-4.57628 14.52497,-4.43376 3.03457,0.0146 6.0693,0.008 9.10394,0.0158 1.75546,-3.03946 3.50805,-6.08059 5.26172,-9.12109 -5.86713,0.0391 -11.73806,-0.0956 -17.60265,0.0682 -7.51885,0.44117 -15.10196,3.53712 -20.04057,9.36093 -3.63522,4.24849 -5.4434,10.15666 -4.24485,15.67836 1.04729,5.05694 4.53089,9.28985 8.70338,12.17634 0.68584,0.25759 -0.10746,0.84087 -0.24864,1.28314 -8.20383,14.23031 -16.40791,28.46047 -24.61159,42.69086 h 9.94336 c 7.72027,-13.40036 15.44289,-26.79937 23.16406,-40.19922 6.01365,1.08212 11.58846,1.90306 17.62056,2.86951 3.46584,0.5837 7.25029,2.03637 10.28816,3.80185 8.15638,4.63132 14.36999,12.63532 16.68631,21.77292 0.99321,3.76361 1.24189,7.62063 1.1452,11.4901 v 2.01875 c 3.03972,3.6e-4 6.07943,0.002 9.11914,0.002 -0.0368,-4.33915 -0.0903,-8.74546 1.00413,-12.96695 2.14812,-9.02316 8.10396,-17.12876 16.11102,-21.88972 4.22013,-2.58144 9.17736,-4.20544 14.11935,-4.66974 0.54335,-9e-4 1.22384,-0.23105 1.68101,-0.049 6.59854,12.60846 13.1966,25.21716 19.79543,37.82546 3.50065,-9.3e-4 7.0013,-0.003 10.50196,-0.004 -6.8305,-13.00992 -13.66432,-26.01809 -20.4961,-39.02734 6.75409,-1.49064 13.29219,-5.10901 17.22803,-10.92706 2.96626,-4.30122 3.90135,-9.96139 2.28921,-14.95197 -1.8151,-5.90894 -6.54639,-10.57257 -12.02656,-13.22501 -4.96312,-2.45668 -10.57971,-3.33899 -16.08091,-3.12838 h -15.72813 c -7.65496,-13.25976 -15.30979,-26.51959 -22.96484,-39.7793 -0.153,0.26498 -0.30599,0.52995 -0.45899,0.79492 z m 8.85743,31.98633 c 7.65827,13.25149 15.33427,26.66747 22.97454,39.92935 3.25152,-0.55699 6.59087,-0.86703 9.95319,-1.14614 -4.36436,-7.5565 -8.73061,-15.1119 -13.0957,-22.66797 4.89536,0.0375 9.79513,-0.0863 14.6875,0.084 4.9187,0.45429 9.95166,2.36994 13.20898,6.21289 2.0396,2.42988 3.03133,5.93569 1.79001,8.96159 -1.4732,3.62735 -4.86658,6.0831 -8.36115,7.58587 -2.93613,1.25218 -6.03425,1.80126 -9.1588,2.01899 -4.90928,0.47594 -9.90809,0.75544 -14.6009,2.40639 -8.00305,2.67628 -15.21157,7.69363 -20.53197,14.23855 -2.05692,2.55095 -3.81961,5.33768 -5.26219,8.27885 -3.88531,-7.91017 -10.1145,-14.79661 -18.03187,-18.7964 -4.60132,-2.37926 -9.58521,-3.94587 -14.64,-5.02196 4.99023,-8.65625 9.98047,-17.3125 14.9707,-25.96875 H 906.25 c -1.75148,-3.03934 -3.50517,-6.0774 -5.25586,-9.11719 h -22.47852 c 4.14649,-7.18164 8.29297,-14.36328 12.43946,-21.54492 2.79948,4.84896 5.59896,9.69791 8.39844,14.54687 z m -57.05274,51.70313 c -7.00746,12.18324 -14.02026,24.36341 -21.02734,36.54687 h 10.40625 c 6.88197,-11.95686 13.50843,-23.43332 20.39118,-35.38973 -3.27381,-0.56161 -6.3143,-1.12979 -9.60017,-1.45402 -0.0566,0.099 -0.11328,0.19792 -0.16992,0.29688 z"
       sodipodi:nodetypes="scccccccccccccccccccccccccccccccccccsssccccccccccccccccccsscccccc" />
    <path
       id="path48"
       style="color:#000000;fill:#000000;stroke:none;stroke-opacity:1;-inkscape-stroke:none"
       d="m 1079.9378,164.64648 c -11.1198,19.31911 -22.2958,38.60647 -33.3739,57.94907 l -8.4758,14.83023 c -3.5894,-0.9798 -7.2398,-1.92362 -10.5662,-3.62565 -2.8702,-1.79332 -5.3839,-4.72757 -5.5951,-8.23258 -0.1758,-3.30588 1.6991,-6.39129 4.2238,-8.39763 4.0367,-3.30173 9.3891,-4.57628 14.525,-4.43376 3.0346,0.0146 6.0693,0.008 9.104,0.0158 1.7554,-3.03946 3.508,-6.08059 5.2617,-9.12109 -5.8672,0.0391 -11.7381,-0.0956 -17.6027,0.0682 -7.5188,0.44117 -15.1019,3.53712 -20.0405,9.36093 -3.6353,4.24849 -5.4434,10.15666 -4.2449,15.67836 1.0473,5.05694 4.5309,9.28985 8.7034,12.17634 0.6858,0.25759 -0.1075,0.84087 -0.2487,1.28314 -8.2038,14.23031 -16.4079,28.46047 -24.61154,42.69086 h 9.94334 c 7.7203,-13.40036 15.4429,-26.79937 23.1641,-40.19922 6.0136,1.08212 11.5884,1.90306 17.6205,2.86951 3.4659,0.5837 7.2503,2.03637 10.2882,3.80185 8.1564,4.63132 14.37,12.63532 16.6863,21.77292 0.9932,3.76361 1.2419,7.62063 1.1452,11.4901 v 2.01875 c 3.0397,3.6e-4 6.0794,0.002 9.1191,0.002 -0.037,-4.33915 -0.09,-8.74546 1.0042,-12.96695 2.1481,-9.02316 8.1039,-17.12876 16.111,-21.88972 4.2201,-2.58144 9.1774,-4.20544 14.1193,-4.66974 0.5434,-9e-4 1.2239,-0.23105 1.6811,-0.049 6.5985,12.60846 13.1966,25.21716 19.7954,37.82546 3.5006,-9.3e-4 7.0013,-0.003 10.5019,-0.004 -6.8305,-13.00992 -13.6643,-26.01809 -20.4961,-39.02734 6.7541,-1.49064 13.2922,-5.10901 17.2281,-10.92706 2.9662,-4.30122 3.9013,-9.96139 2.2892,-14.95197 -1.8151,-5.90894 -6.5464,-10.57257 -12.0266,-13.22501 -4.9631,-2.45668 -10.5797,-3.33899 -16.0809,-3.12838 h -15.7281 c -7.655,-13.25976 -15.3098,-26.51959 -22.9649,-39.7793 -0.153,0.26498 -0.3059,0.52995 -0.4589,0.79492 z m 8.8574,31.98633 c 7.6583,13.25149 15.3343,26.66747 22.9745,39.92935 3.2515,-0.55699 6.5909,-0.86703 9.9532,-1.14614 -4.3643,-7.5565 -8.7306,-15.1119 -13.0957,-22.66797 4.8954,0.0375 9.7951,-0.0863 14.6875,0.084 4.9187,0.45429 9.9517,2.36994 13.209,6.21289 2.0396,2.42988 3.0313,5.93569 1.79,8.96159 -1.4732,3.62735 -4.8666,6.0831 -8.3611,7.58587 -2.9362,1.25218 -6.0343,1.80126 -9.1588,2.01899 -4.9093,0.47594 -9.9081,0.75544 -14.6009,2.40639 -8.0031,2.67628 -15.2116,7.69363 -20.532,14.23855 -2.0569,2.55095 -3.8196,5.33768 -5.2622,8.27885 -3.8853,-7.91017 -10.1145,-14.79661 -18.0319,-18.7964 -4.6013,-2.37926 -9.5852,-3.94587 -14.64,-5.02196 4.9903,-8.65625 9.9805,-17.3125 14.9707,-25.96875 h 32.9942 c -1.7515,-3.03934 -3.5052,-6.0774 -5.2559,-9.11719 h -22.4785 c 4.1465,-7.18164 8.293,-14.36328 12.4394,-21.54492 2.7995,4.84896 5.599,9.69791 8.3985,14.54687 z m -57.0528,51.70313 c -7.0074,12.18324 -14.0202,24.36341 -21.0273,36.54687 h 10.4063 c 6.8819,-11.95686 13.5084,-23.43332 20.3911,-35.38973 -3.2738,-0.56161 -6.3143,-1.12979 -9.6001,-1.45402 -0.057,0.099 -0.1133,0.19792 -0.17,0.29688 z"
       sodipodi:nodetypes="scccccccccccccccccccccccccccccccccccsssccccccccccccccccccsscccccc"
       inkscape:export-filename=".\MRPA_Logo_v1.png"
       inkscape:export-xdpi="96"
       inkscape:export-ydpi="96" />
    <text
       xml:space="preserve"
       style="font-size:50.8px;fill:#000000;fill-opacity:1;stroke:none;stroke-width:0.1;stroke-linecap:butt;stroke-linejoin:miter;stroke-dasharray:none;stroke-opacity:1"
       x="1001.6637"
       y="324.01132"
       id="text48"><tspan
         sodipodi:role="line"
         id="tspan48"
         style="font-style:normal;font-variant:normal;font-weight:normal;font-stretch:normal;font-size:50.8px;font-family:Century;-inkscape-font-specification:Century;fill:#000000;fill-opacity:1;stroke-width:0.1"
         x="1001.6637"
         y="324.01132">MRPA</tspan></text>
  </g>
</svg>
